<svg xmlns="http://www.w3.org/2000/svg" viewBox="0 0 87.4 25.8"><path d="M56.8 5.3H59c3.7.3 6.2 2.9 6.2 6.7 0 3.7-2.4 6.3-6 6.7-6 .6-6 .6-6-5.4V7.5c-.2-1.8.4-2.5 2.2-2.2.4.1.9 0 1.4 0zm-1.7 6.6v4.4c0 .4-.2.9.5 1.1 2.2.7 5.5-.3 6.7-2 1.4-2.1 1.2-5.9-.5-7.6-1.7-1.8-4.1-1.7-6.1-1.2-1.3.3-.4 2.2-.6 3.4v1.9z" fill="#434343"/><path d="M83.9 18.5c-1.7.7-2.2-.3-2.5-1.4-.4-1.7-1.3-2.3-3-2-.5.1-1 .1-1.4 0-1.9-.3-3.1.4-3.5 2.3-.3 1.3-1 1.7-2.4 1.2l5-12.3c.3-.7.6-1 1.3-.9.7 0 1.1.2 1.3.9 1.8 4 3.5 8 5.2 12.2zM77.6 7.4c-.9 2.4-1.7 4.3-2.5 6.3h5l-2.5-6.3z" fill="#414141"/><path d="M33.5 5.3c1.1 0 2.2-.1 3.2.3 1.8.6 2.9 1.8 2.9 3.7s-1 3.1-2.8 3.8c-.4.2-.9.2-1.4.3-1 .2-2.4-.5-3 .4-.5.8-.1 2.1-.2 3.2 0 .7.5 1.7-1 1.7-1.4 0-1-1-1-1.7l-.1-9.5c-.1-1.7.3-2.6 2.2-2.2.5.1.8 0 1.2 0zm-1.3 4.1c.5 1-1 3 1.7 2.8 2.5-.2 3.7-1 3.7-3 0-1.8-1.2-2.5-3.5-2.7-2.8-.3-1.5 1.7-1.9 2.9z" fill="#434343"/><path d="M42.2 12.1v-5c-.2-1.6.4-1.9 1.8-1.8 1.9.1 3.8 0 5.7 0 .4 0 1-.1 1 .6 0 .8-.6.6-1 .6h-2.2c-3.4 0-3.9.6-3.3 4.1.1.8.6.8 1.1.8h3.3c.4 0 1-.1 1 .6 0 .8-.6.5-1 .6H47c-2.6 0-2.5 0-2.7 2.7-.1 1.7.3 2.5 2.2 2.2 1.2-.2 2.4 0 3.7 0 .4 0 .8 0 .8.6 0 .4-.3.6-.6.6h-7.1c-.8 0-.7-.6-.7-1.1-.4-1.9-.4-3.7-.4-5.5z" fill="#404040"/><path d="M67.5 11.8V6.6c0-.8 0-1.3 1.1-1.3.9 0 .9.5.9 1.2v11.1c0 .7 0 1.1-.9 1.2-1 0-1.1-.5-1.1-1.3v-5.7z" fill="#484848"/><path d="M9.9 9.4c1.5-.1 3 .1 4.5-.3-1.4 1.3-3 .7-4.5.3z" fill="#5fbf89"/><path d="M17.1 2.1c-3.3-.8-6.7-.3-10.1-.4-.9 0-1.2.4-1.2 1.2v16.5c0 .7.1 1.2.9 1.2 1 0 1.1-.5 1.1-1.3v-4.8c0-.6-.2-1.4.8-1.5 0 2.2-.1 4.4 0 6.7.1 1.7-.9 1.8-2.2 1.9-1.3 0-1.4-.8-1.4-1.9V2.6C5 1.3 5.4.8 6.7.8c2.4.1 4.8 0 7.1.1 1.3 0 2.5 0 3.3 1.2z" fill="#63c08b"/><g fill="#5fbf89"><path d="M16.9 2c-1.7-.4-3.6-.5-5.3-.5-.4 0-.8 0-1.3.1-.2-.1-.4-.1-.5 0v.1l-1.9-.2H6.4c-.1 0-.2 0-.2.1l-.2.3s-.1-.1-.2 0c-.1.3-.3.7-.3 1.1 0 .2.1.4.2.5l-.1 6.6V12c0 .1 0 .1.1.1l-.1 5.2v2.3c-.1.4 0 .8.3 1.1.2.2.4.3.6.3v.1c.2 0 .4-.1.6-.1s.4-.1.5-.2.1-.3.1-.5c0 0-.1.1-.2.1s-.2.1-.3.1c-.2 0-.3.1-.5.1-.4-.1-.7-.4-.7-.8l-.1-2.4v-5.5c0-.4.1-.8.1-1.2h0v-.1c0-.1 0-.1-.1-.1L6 5.3c0-.5 0-1 .1-1.5.1.1.3.1.4.2s.1.3.2.4c.1.4.2.8.2 1.2l.5 2.6.3 2.3c.1.8.3 1.6.7 2.3-.4.3-.5.8-.5 1.2 0 0-.1 0-.1.1v.1h-.2c0 .2.1.5.1.7 0 .1 0 .1.1.1v1.7c-.1 0-.1.1-.1.1v.1h-.2c0 .3.1.7.1 1 0 .1.1.2.2.1v.8l-.1.1v.1c-.1 0-.1.1-.2.1 0 .1.1.1.1.2 0 0 .1 0 .1.1v.1c-.1 0-.2 0-.3.1.1.1.1.3.2.4.2 0 .4-.1.4-.3v-.1c.1 0 .2-.1.2-.1-.1-.1-.1-.2-.2-.4h.1c0-.1-.1-.1-.1-.2 0 0-.1 0-.1-.1V18l.1-.1v-.1h.2c0-.3-.1-.7-.1-1 0-.1 0-.1-.1-.1v-1.9h.2c0-.2-.1-.5-.1-.7 0-.1-.1-.1-.1-.1.1-.4.2-.8.6-1 .1 0 .1-.1.1-.2-.8-1.3-.8-2.8-.9-4.3-.2-.7-.4-1.5-.5-2.4L7 4.8c0-.3-.1-.7-.3-.9-.1-.2-.4-.3-.6-.4v-.1s-.1 0-.1-.1l-.1-.1c.1 0 .1 0 .1-.1 0-.2 0-.4.1-.6v-.1l.3-.6c1.3-.1 2.6 0 3.9.2.1 0 .2 0 .2-.1v-.1c1.6-.1 3.3 0 4.9.2l1.6.3h.1c-.1-.1-.1-.2-.2-.3z"/><path d="M17.1 2.1c3.1 3.1 2.9 6.9-.5 9.8-1.3 1.1-.1 1.7.3 2.5.7 1.1 1 .2 1.4-.3 1.1-1.3 2.5-.6 3.8-.6.5 0 .3.6.1.9-.5.8-.9 1.7-1.5 2.4-1.3 1.3-1.2 2.5-.1 3.9.3.4.6.7.8 1.2.3.8 1.7 1.6.8 2.4-.9.7-2.5.7-3.4-.3s-1.5-1.4-2.5 0c-.5.6-1.5.8-2.5.6-1.1-.2-1.8-.8-.9-1.7 2.5-2.8 1.8-5.3 0-8.2-1.3-2.1-2.8-1.2-4.3-1.4-1 .1-.8.9-.8 1.5v4.8c0 .8-.1 1.3-1.1 1.3-.9 0-.9-.6-.9-1.2V3.2C5.8 2.4 6.1 2 7 2c3.4-.2 6.8-.7 10.1.1zM14.4 9c1.1-.9 1.6-2 .9-3.4-.6-1.1-3.5-1.8-5.8-1.2-1.6.5-.7 1.8-.8 2.6-.1.9-.7 2.3 1.2 2.4 1.5.4 3.1 1 4.5-.4z"/></g><path d="M5.9 1.5h3.4v.9H5.9z" fill="#63c08b"/></svg>