<?xml version="1.0" encoding="utf-8"?>
<!-- Generator: Adobe Illustrator 24.0.3, SVG Export Plug-In . SVG Version: 6.00 Build 0)  -->
<svg version="1.1" id="Layer_1" xmlns="http://www.w3.org/2000/svg" xmlns:xlink="http://www.w3.org/1999/xlink" x="0px" y="0px"
	 viewBox="0 0 87.4 25.8" style="enable-background:new 0 0 87.4 25.8;" xml:space="preserve">
<style type="text/css">
	.st0{fill:#FFFFFF;}
</style>
<path class="st0" d="M56.8,5.3H59c3.7,0.3,6.2,2.9,6.2,6.7c0,3.7-2.4,6.3-6,6.7c-6,0.6-6,0.6-6-5.4V7.5C53,5.7,53.6,5,55.4,5.3
	C55.8,5.4,56.3,5.3,56.8,5.3z M55.1,11.9v4.4c0,0.4-0.2,0.9,0.5,1.1c2.2,0.7,5.5-0.3,6.7-2c1.4-2.1,1.2-5.9-0.5-7.6
	c-1.7-1.8-4.1-1.7-6.1-1.2c-1.3,0.3-0.4,2.2-0.6,3.4C55.1,10,55.1,11.9,55.1,11.9z"/>
<path class="st0" d="M83.9,18.5c-1.7,0.7-2.2-0.3-2.5-1.4c-0.4-1.7-1.3-2.3-3-2c-0.5,0.1-1,0.1-1.4,0c-1.9-0.3-3.1,0.4-3.5,2.3
	c-0.3,1.3-1,1.7-2.4,1.2l5-12.3c0.3-0.7,0.6-1,1.3-0.9c0.7,0,1.1,0.2,1.3,0.9C80.5,10.3,82.2,14.3,83.9,18.5z M77.6,7.4
	c-0.9,2.4-1.7,4.3-2.5,6.3h5C80.1,13.7,77.6,7.4,77.6,7.4z"/>
<path class="st0" d="M33.5,5.3c1.1,0,2.2-0.1,3.2,0.3c1.8,0.6,2.9,1.8,2.9,3.7s-1,3.1-2.8,3.8c-0.4,0.2-0.9,0.2-1.4,0.3
	c-1,0.2-2.4-0.5-3,0.4c-0.5,0.8-0.1,2.1-0.2,3.2c0,0.7,0.5,1.7-1,1.7c-1.4,0-1-1-1-1.7l-0.1-9.5c-0.1-1.7,0.3-2.6,2.2-2.2
	C32.8,5.4,33.1,5.3,33.5,5.3z M32.2,9.4c0.5,1-1,3,1.7,2.8c2.5-0.2,3.7-1,3.7-3c0-1.8-1.2-2.5-3.5-2.7C31.3,6.2,32.6,8.2,32.2,9.4z"
	/>
<path class="st0" d="M42.2,12.1v-5C42,5.5,42.6,5.2,44,5.3c1.9,0.1,3.8,0,5.7,0c0.4,0,1-0.1,1,0.6c0,0.8-0.6,0.6-1,0.6h-2.2
	c-3.4,0-3.9,0.6-3.3,4.1c0.1,0.8,0.6,0.8,1.1,0.8h3.3c0.4,0,1-0.1,1,0.6c0,0.8-0.6,0.5-1,0.6H47c-2.6,0-2.5,0-2.7,2.7
	c-0.1,1.7,0.3,2.5,2.2,2.2c1.2-0.2,2.4,0,3.7,0c0.4,0,0.8,0,0.8,0.6c0,0.4-0.3,0.6-0.6,0.6h-7.1c-0.8,0-0.7-0.6-0.7-1.1
	C42.2,15.7,42.2,13.9,42.2,12.1z"/>
<path class="st0" d="M67.5,11.8V6.6c0-0.8,0-1.3,1.1-1.3c0.9,0,0.9,0.5,0.9,1.2v11.1c0,0.7,0,1.1-0.9,1.2c-1,0-1.1-0.5-1.1-1.3
	C67.5,17.5,67.5,11.8,67.5,11.8z"/>
<path class="st0" d="M9.9,9.4c1.5-0.1,3,0.1,4.5-0.3C13,10.4,11.4,9.8,9.9,9.4z"/>
<path class="st0" d="M17.1,2.1C13.8,1.3,10.4,1.8,7,1.7c-0.9,0-1.2,0.4-1.2,1.2v16.5c0,0.7,0.1,1.2,0.9,1.2c1,0,1.1-0.5,1.1-1.3
	v-4.8c0-0.6-0.2-1.4,0.8-1.5c0,2.2-0.1,4.4,0,6.7c0.1,1.7-0.9,1.8-2.2,1.9c-1.3,0-1.4-0.8-1.4-1.9V2.6c0-1.3,0.4-1.8,1.7-1.8
	c2.4,0.1,4.8,0,7.1,0.1C15.1,0.9,16.3,0.9,17.1,2.1z"/>
<g>
	<path class="st0" d="M16.9,2c-1.7-0.4-3.6-0.5-5.3-0.5c-0.4,0-0.8,0-1.3,0.1c-0.2-0.1-0.4-0.1-0.5,0v0.1L7.9,1.5H6.4
		c-0.1,0-0.2,0-0.2,0.1L6,1.9c0,0-0.1-0.1-0.2,0C5.7,2.2,5.5,2.6,5.5,3c0,0.2,0.1,0.4,0.2,0.5l-0.1,6.6V12c0,0.1,0,0.1,0.1,0.1
		l-0.1,5.2v2.3c-0.1,0.4,0,0.8,0.3,1.1C6.1,20.9,6.3,21,6.5,21v0.1c0.2,0,0.4-0.1,0.6-0.1s0.4-0.1,0.5-0.2s0.1-0.3,0.1-0.5
		c0,0-0.1,0.1-0.2,0.1s-0.2,0.1-0.3,0.1c-0.2,0-0.3,0.1-0.5,0.1C6.3,20.5,6,20.2,6,19.8l-0.1-2.4v-5.5c0-0.4,0.1-0.8,0.1-1.2l0,0
		v-0.1c0-0.1,0-0.1-0.1-0.1L6,5.3c0-0.5,0-1,0.1-1.5C6.2,3.9,6.4,3.9,6.5,4s0.1,0.3,0.2,0.4c0.1,0.4,0.2,0.8,0.2,1.2l0.5,2.6
		l0.3,2.3c0.1,0.8,0.3,1.6,0.7,2.3C8,13.1,7.9,13.6,7.9,14c0,0-0.1,0-0.1,0.1v0.1H7.6c0,0.2,0.1,0.5,0.1,0.7c0,0.1,0,0.1,0.1,0.1
		v1.7c-0.1,0-0.1,0.1-0.1,0.1v0.1H7.5c0,0.3,0.1,0.7,0.1,1c0,0.1,0.1,0.2,0.2,0.1v0.8l-0.1,0.1V19c-0.1,0-0.1,0.1-0.2,0.1
		c0,0.1,0.1,0.1,0.1,0.2c0,0,0.1,0,0.1,0.1v0.1c-0.1,0-0.2,0-0.3,0.1c0.1,0.1,0.1,0.3,0.2,0.4C7.8,20,8,19.9,8,19.7v-0.1
		c0.1,0,0.2-0.1,0.2-0.1c-0.1-0.1-0.1-0.2-0.2-0.4h0.1C8.1,19,8,19,8,18.9c0,0-0.1,0-0.1-0.1V18L8,17.9v-0.1h0.2
		c0-0.3-0.1-0.7-0.1-1c0-0.1,0-0.1-0.1-0.1v-1.9h0.2c0-0.2-0.1-0.5-0.1-0.7C8.1,14,8,14,8,14c0.1-0.4,0.2-0.8,0.6-1
		c0.1,0,0.1-0.1,0.1-0.2C7.9,11.5,7.9,10,7.8,8.5C7.6,7.8,7.4,7,7.3,6.1L7,4.8c0-0.3-0.1-0.7-0.3-0.9C6.6,3.7,6.3,3.6,6.1,3.5V3.4
		c0,0-0.1,0-0.1-0.1L5.9,3.2C6,3.2,6,3.2,6,3.1c0-0.2,0-0.4,0.1-0.6V2.4l0.3-0.6C7.7,1.7,9,1.8,10.3,2c0.1,0,0.2,0,0.2-0.1V1.8
		c1.6-0.1,3.3,0,4.9,0.2L17,2.3h0.1C17,2.2,17,2.1,16.9,2z"/>
	<path class="st0" d="M17.1,2.1c3.1,3.1,2.9,6.9-0.5,9.8c-1.3,1.1-0.1,1.7,0.3,2.5c0.7,1.1,1,0.2,1.4-0.3c1.1-1.3,2.5-0.6,3.8-0.6
		c0.5,0,0.3,0.6,0.1,0.9c-0.5,0.8-0.9,1.7-1.5,2.4c-1.3,1.3-1.2,2.5-0.1,3.9c0.3,0.4,0.6,0.7,0.8,1.2c0.3,0.8,1.7,1.6,0.8,2.4
		C21.3,25,19.7,25,18.8,24s-1.5-1.4-2.5,0c-0.5,0.6-1.5,0.8-2.5,0.6c-1.1-0.2-1.8-0.8-0.9-1.7c2.5-2.8,1.8-5.3,0-8.2
		c-1.3-2.1-2.8-1.2-4.3-1.4c-1,0.1-0.8,0.9-0.8,1.5v4.8c0,0.8-0.1,1.3-1.1,1.3c-0.9,0-0.9-0.6-0.9-1.2V3.2C5.8,2.4,6.1,2,7,2
		C10.4,1.8,13.8,1.3,17.1,2.1z M14.4,9c1.1-0.9,1.6-2,0.9-3.4c-0.6-1.1-3.5-1.8-5.8-1.2C7.9,4.9,8.8,6.2,8.7,7
		C8.6,7.9,8,9.3,9.9,9.4C11.4,9.8,13,10.4,14.4,9z"/>
</g>
<path class="st0" d="M5.9,1.5h3.4v0.9H5.9V1.5z"/>
</svg>
