<?xml version="1.0" encoding="utf-8"?>
<!-- Generator: Adobe Illustrator 24.0.3, SVG Export Plug-In . SVG Version: 6.00 Build 0)  -->
<svg version="1.1" id="Layer_1" xmlns="http://www.w3.org/2000/svg" xmlns:xlink="http://www.w3.org/1999/xlink" x="0px" y="0px"
	 viewBox="0 0 50 50" style="enable-background:new 0 0 50 50;" xml:space="preserve">
<style type="text/css">
	.st0{display:none;}
	.st1{fill:#FFFFFF;}
</style>
<g id="XMLID_33_" class="st0">
	<polygon id="XMLID_1_" class="st1" points="28,15.7 31.2,7.6 49,50.1 42.6,50.1 37.4,37.6 19,37.6 21.4,32.1 34.7,32.1 	"/>
	<polygon id="XMLID_2_" class="st1" points="33.4,44.2 35.6,50.1 1,50.1 21.8,-0.1 28.6,-0.1 10.4,44.2 	"/>
</g>
<g id="Layer_2">
	<path class="st1" d="M19,18.5c3.1-0.3,6.2,0.2,9.3-0.7C25.4,20.7,22.2,19.4,19,18.5"/>
	<path class="st1" d="M34,3.5c-6.9-1.6-13.9-0.6-20.9-0.8c-1.8-0.1-2.5,0.8-2.5,2.5c0,11.4,0,22.8,0,34.2c0,1.3,0.2,2.5,1.9,2.6
		c2,0.1,2.3-1.1,2.3-2.7c0-3.3,0-6.7,0-10c0-1.3-0.4-2.9,1.7-3.2c0,4.6-0.2,9.2,0,13.8c0.2,3.5-2,3.7-4.5,3.8
		c-3,0.2-3.1-1.6-3.1-3.7c0-11.8,0.1-23.6,0-35.5c0-2.7,0.8-3.8,3.6-3.7c4.9,0.2,9.8,0,14.7,0.1C29.8,1,32.4,1.1,34,3.5"/>
	<path class="st1" d="M10.4,6.3c-0.2,4.5-0.3,9.1-0.3,13.6c0,1.3,0,2.6,0,3.9c0,0.4,0.6,0.4,0.6,0c0.1-0.9,0.1-1.8,0.2-2.7h-0.6
		c-0.2,4.5-0.2,9.1-0.2,13.6c0,1.3,0,2.6,0.1,3.9c0,0.4,0.6,0.4,0.6,0l0-3.5h-0.6c0.1,1.8,0.1,3.5,0,5.3h0.6c0-0.3,0-0.7,0-1
		c0-0.3-0.5-0.4-0.6-0.1c-0.2,0.8,0,1.7,0.7,2.3c0.6,0.6,1.5,0.8,2.3,0.6c0.4-0.1,0.2-0.6-0.2-0.6c-0.3,0-0.6,0.1-1,0.1
		c0.1,0.2,0.1,0.4,0.2,0.6c0.4-0.1,0.8-0.2,1.3-0.3c0.3-0.1,0.8-0.2,1-0.5c0.3-0.3,0.2-0.7,0.2-1c0-0.5,0-0.9,0-1.4
		c-0.2,0-0.4,0.1-0.5,0.1c0.1,0.3,0.2,0.5,0.3,0.8c0.1,0.3,0.6,0.1,0.5-0.2c-0.1-0.4-0.3-0.9-0.4-1.3c-0.2,0.1-0.4,0.2-0.5,0.2
		c0.1,0.2,0.2,0.3,0.3,0.5c0.1,0.2,0.6,0.2,0.5-0.1c-0.1-1.6-0.2-3.3-0.3-4.9h-0.6c0.1,0.7,0.2,1.4,0.2,2.1c0,0.4,0.6,0.4,0.6,0
		c0-2.6,0-5.1-0.1-7.7c-0.2,0-0.4,0.1-0.6,0.1c0.1,0.5,0.1,0.9,0.2,1.4c0,0.3,0.6,0.3,0.6-0.1c-0.1-1.3-0.2-3.2,1.2-3.8
		c0.1-0.1,0.2-0.3,0.1-0.4c-1.6-2.6-1.6-5.8-1.9-8.8c-0.2-1.7-0.5-3.5-0.9-5.2c-0.2-0.9-0.3-1.7-0.5-2.6c-0.1-0.7-0.2-1.5-0.7-2
		c-0.5-0.6-1.4-0.6-1.7-1.4c-0.3-0.8,0.1-1.7,0.5-2.4c-0.2,0-0.4-0.1-0.5-0.1c-0.1,0.8-0.2,1.5-0.2,2.3L11,5.3
		c-0.2-0.3,0.1-0.8,0.2-1.1c0.2-0.5,0.5-1,0.7-1.4c-0.1,0-0.2,0.1-0.3,0.1c2.7-0.2,5.3-0.1,8,0.3c0.1,0,0.3,0,0.4-0.2
		c0.1-0.7-0.9-1.3-1.3-0.7c-0.1,0.2-0.1,0.5,0.2,0.5c3.8-0.3,7.6-0.2,11.4,0.3c1.1,0.1,2.1,0.3,3.2,0.5c0.4,0.1,0.5-0.5,0.2-0.6
		c-3.8-0.7-7.6-1.1-11.5-1c-1.1,0-2.2,0.1-3.3,0.1l0.2,0.5c0.1-0.1,0.4-0.1,0.4,0.1c0.1-0.1,0.2-0.1,0.4-0.2
		c-1.6-0.3-3.3-0.4-4.9-0.4c-0.8,0-1.6,0-2.5,0c-0.2,0-0.4,0-0.6,0c-0.2,0-0.4,0-0.5,0.2c-0.2,0.4-0.4,0.7-0.6,1.1
		c-0.3,0.6-0.8,1.4-0.3,2.1c0.2,0.2,0.5,0,0.5-0.2c0.1-0.8,0.2-1.5,0.2-2.3c0-0.3-0.4-0.4-0.5-0.1c-0.3,0.7-0.7,1.4-0.7,2.2
		c0,0.7,0.4,1.3,1,1.6c0.3,0.2,0.7,0.3,0.9,0.6c0.2,0.3,0.3,0.6,0.4,0.9c0.2,0.8,0.3,1.7,0.5,2.6c0.3,1.8,0.7,3.6,0.9,5.4
		c0.2,1.6,0.3,3.2,0.5,4.8c0.2,1.7,0.6,3.4,1.6,4.9c0-0.1,0.1-0.3,0.1-0.4c-1.6,0.8-1.6,2.8-1.5,4.4c0.2,0,0.4-0.1,0.6-0.1
		C15,29.5,15,29,14.9,28.6c0-0.3-0.6-0.2-0.6,0.1c0,2.6,0,5.1,0.1,7.7H15c-0.1-0.7-0.2-1.4-0.2-2.1c0-0.4-0.6-0.4-0.6,0
		c0.1,1.6,0.2,3.3,0.3,4.9c0.2,0,0.4-0.1,0.5-0.1c-0.1-0.2-0.2-0.3-0.3-0.5c-0.2-0.3-0.6-0.1-0.5,0.2c0.1,0.4,0.3,0.9,0.4,1.3
		c0.2-0.1,0.4-0.2,0.5-0.2c-0.1-0.3-0.2-0.5-0.3-0.8c-0.1-0.3-0.5-0.1-0.5,0.1c0,0.4,0,0.8,0,1.2c0,0.2,0,0.4,0,0.5
		c0,0.1,0,0.3-0.1,0.4c-0.1,0.1-0.3,0.1-0.4,0.2c-0.2,0.1-0.4,0.1-0.5,0.2c-0.4,0.1-0.7,0.2-1.1,0.2c-0.4,0.1-0.2,0.6,0.2,0.6
		c0.3,0,0.6-0.1,1-0.1c-0.1-0.2-0.1-0.4-0.2-0.6c-1.3,0.3-2.5-0.9-2.2-2.2c-0.2,0-0.4-0.1-0.6-0.1c0,0.3,0,0.7,0,1
		c0,0.4,0.6,0.4,0.6,0c0.1-1.8,0.1-3.5,0-5.3c0-0.4-0.6-0.4-0.6,0l0,3.5h0.6c-0.1-4.5-0.1-9.1,0-13.6c0-1.3,0.1-2.6,0.1-3.9
		c0-0.4-0.6-0.4-0.6,0c-0.1,0.9-0.1,1.8-0.2,2.7h0.6c0-4.5,0-9.1,0.1-13.6c0-1.3,0.1-2.6,0.1-3.9C11,5.9,10.4,5.9,10.4,6.3"/>
	<path class="st1" d="M34,3.5c6.3,6.3,6,14.2-1,20.1c-2.7,2.3-0.2,3.6,0.7,5.1c1.4,2.3,2,0.4,2.9-0.6c2.2-2.6,5.2-1.2,7.9-1.3
		c1.1-0.1,0.7,1.2,0.2,2c-1,1.7-1.8,3.6-3.1,4.9c-2.7,2.7-2.5,5.2-0.2,8c0.6,0.7,1.2,1.5,1.6,2.4c0.7,1.7,3.6,3.3,1.6,4.9
		c-1.8,1.5-5.1,1.4-6.9-0.6c-2-2.1-3-2.9-5.1-0.1c-0.9,1.3-3.2,1.6-5.1,1.3c-2.3-0.4-3.7-1.6-1.9-3.6c5.2-5.8,3.8-10.9,0-17
		c-2.7-4.3-5.9-2.5-9-2.9c-2.1,0.2-1.7,1.8-1.7,3.2c0,3.3,0,6.7,0,10c0,1.6-0.3,2.8-2.3,2.7c-1.8-0.1-1.9-1.2-1.9-2.6
		c0-11.4,0-22.8,0-34.2c0-1.7,0.7-2.6,2.5-2.5C20.1,2.9,27.1,1.9,34,3.5 M28.3,17.8c2.3-1.9,3.2-4.2,1.8-6.9
		c-1.2-2.4-7.3-3.6-12-2.4c-3.1,0.8-1.4,3.4-1.5,5.2c-0.1,1.8-1.4,4.7,2.4,4.9C22.2,19.4,25.4,20.7,28.3,17.8"/>
	<path class="st1" d="M19.1,19.1c0.9,0.2,1.8,0.3,2.7,0.3c0.2,0,0.4,0,0.6,0c0.2,0,0.3,0.1,0.5,0.2c0.4,0.2,0.8,0.1,1.2,0.1
		c0.4,0,0.9,0,1.3,0c0.2,0,0.4-0.1,0.5-0.2c0.2-0.1,0.3-0.1,0.5-0.1c0.4,0,0.7-0.2,0.9-0.5c0.1-0.1,0.2-0.3,0.4-0.4
		c0.2-0.1,0.4-0.2,0.6-0.2c0.4-0.1,0.2-0.7-0.2-0.6c-0.3,0.1-0.7,0.2-1,0.5c-0.3,0.3-0.5,0.6-0.9,0.7c-0.2,0-0.3,0-0.5,0.1
		c-0.2,0.1-0.3,0.2-0.5,0.2c-0.4,0.1-0.9,0-1.3,0c-0.4,0-0.8,0-1.1-0.2c-0.3-0.2-0.7-0.2-1.1-0.2c-0.9,0-1.7-0.1-2.6-0.3
		C18.9,18.4,18.7,19,19.1,19.1"/>
</g>
</svg>
